<svg width="218" height="185" viewBox="0 0 218 185" fill="none" xmlns="http://www.w3.org/2000/svg">
<path opacity="0.1" d="M216.504 127.551C210.577 97.6644 175.854 73.7776 169.082 42.6332C156.773 3.00895 116.202 -3.25572 89.838 13.9531C48.0644 41.2206 92.6281 47.9872 10.7237 112.501C-9.50039 128.43 -3.0561 198.747 60.5676 182.61C94.8071 173.925 105.216 172.707 120.617 171.276C159.436 167.673 226.453 177.721 216.504 127.551Z" fill="#367CFF"/>
<path d="M170.13 135.042L110.131 166.731L50.2231 135.042V87.1902H170.13V135.042Z" fill="white"/>
<path d="M110.131 167.217C110.052 167.217 109.974 167.197 109.904 167.16L49.9975 135.471C49.9196 135.43 49.8543 135.369 49.8087 135.293C49.7631 135.218 49.7388 135.132 49.7385 135.044V87.1901C49.7385 87.0612 49.7897 86.9376 49.8809 86.8465C49.972 86.7553 50.0956 86.7041 50.2245 86.7041H170.13C170.259 86.7041 170.382 86.7553 170.474 86.8465C170.565 86.9376 170.616 87.0612 170.616 87.1901V135.042C170.616 135.13 170.591 135.217 170.546 135.292C170.5 135.367 170.435 135.429 170.357 135.47L110.358 167.159C110.288 167.196 110.21 167.216 110.131 167.217ZM50.709 134.75L110.131 166.181L169.644 134.749V87.6762H50.709V134.75Z" fill="#8AA0C9"/>
<path d="M170.13 76.9217L110.131 45.2333L137.092 32.2378L197.091 63.9266L170.13 76.9217Z" fill="white"/>
<path d="M170.13 77.4079C170.051 77.4079 169.973 77.3887 169.903 77.3519L109.904 45.6631C109.825 45.621 109.758 45.5577 109.713 45.4802C109.667 45.4028 109.644 45.3142 109.645 45.2242C109.647 45.1343 109.674 45.0466 109.722 44.9709C109.771 44.8952 109.839 44.8343 109.92 44.7952L136.881 31.7997C136.95 31.7665 137.025 31.7499 137.101 31.7513C137.178 31.7527 137.252 31.7721 137.319 31.8079L197.318 63.4967C197.398 63.5387 197.464 63.6019 197.51 63.6794C197.555 63.7568 197.579 63.8454 197.577 63.9353C197.575 64.0252 197.549 64.1129 197.5 64.1886C197.452 64.2643 197.383 64.3251 197.302 64.3641L170.341 77.3596C170.275 77.3914 170.203 77.4079 170.13 77.4079ZM111.209 45.2525L170.14 76.3767L196.013 63.9061L137.082 32.7826L111.209 45.2525Z" fill="#8AA0C9"/>
<path d="M50.223 76.9217L110.222 45.2333L83.2606 32.2378L23.2618 63.9266L50.223 76.9217Z" fill="white"/>
<path d="M50.223 77.4079C50.1499 77.4079 50.0778 77.3914 50.0119 77.3596L23.0523 64.3641C22.9713 64.3251 22.9028 64.2643 22.8543 64.1886C22.8058 64.1129 22.7792 64.0252 22.7775 63.9353C22.7759 63.8454 22.7992 63.7568 22.8449 63.6794C22.8906 63.6019 22.9569 63.5387 23.0364 63.4967L83.0351 31.8079C83.1024 31.7721 83.1771 31.7527 83.2533 31.7513C83.3294 31.7499 83.4048 31.7665 83.4733 31.7997L110.434 44.7952C110.515 44.8343 110.584 44.8952 110.632 44.9709C110.681 45.0466 110.708 45.1343 110.709 45.2242C110.711 45.3142 110.688 45.4028 110.642 45.4802C110.596 45.5577 110.53 45.621 110.45 45.6631L50.4517 77.3519C50.3812 77.3889 50.3027 77.4082 50.223 77.4079ZM24.3401 63.9069L50.2129 76.3775L109.144 45.2533L83.2708 32.7826L24.3401 63.9069Z" fill="#8AA0C9"/>
<path d="M50.223 76.9219L110.222 108.611L79.3724 125.494L19.3737 93.8056L50.223 76.9219Z" fill="white"/>
<path d="M79.3724 125.98C79.2933 125.98 79.2153 125.961 79.1454 125.923L19.1466 94.2347C19.0692 94.1936 19.0042 94.1323 18.9588 94.0573C18.9133 93.9824 18.889 93.8965 18.8883 93.8088C18.8877 93.7211 18.9108 93.6349 18.9552 93.5593C18.9995 93.4837 19.0635 93.4215 19.1404 93.3793L49.9897 76.4955C50.0602 76.4569 50.1392 76.4363 50.2195 76.4358C50.2999 76.4353 50.3791 76.4547 50.4501 76.4924L110.449 108.181C110.526 108.222 110.591 108.284 110.637 108.359C110.682 108.434 110.707 108.519 110.707 108.607C110.708 108.695 110.685 108.781 110.64 108.857C110.596 108.932 110.532 108.994 110.455 109.037L79.6057 125.92C79.5342 125.959 79.454 125.98 79.3724 125.98ZM20.4002 93.7976L79.3682 124.942L109.196 108.618L50.2273 77.4734L20.4002 93.7976Z" fill="#8AA0C9"/>
<path d="M170.13 76.9219L110.131 108.611L140.98 125.494L200.979 93.8056L170.13 76.9219Z" fill="white"/>
<path d="M140.981 125.98C140.9 125.98 140.82 125.959 140.748 125.92L109.899 109.037C109.822 108.994 109.758 108.932 109.713 108.857C109.669 108.781 109.646 108.695 109.647 108.607C109.647 108.519 109.672 108.434 109.717 108.359C109.763 108.284 109.827 108.222 109.905 108.181L169.904 76.4924C169.975 76.4547 170.054 76.4353 170.134 76.4358C170.215 76.4363 170.294 76.4569 170.364 76.4955L201.213 93.3793C201.29 93.4215 201.354 93.4837 201.399 93.5593C201.443 93.6349 201.466 93.7211 201.465 93.8088C201.465 93.8965 201.44 93.9824 201.395 94.0573C201.35 94.1323 201.285 94.1936 201.207 94.2347L141.208 125.923C141.138 125.961 141.06 125.98 140.981 125.98ZM111.159 108.618L140.986 124.942L199.954 93.7976L170.127 77.4734L111.159 108.618Z" fill="#8AA0C9"/>
<path d="M110.222 45.2332L50.223 76.9216L110.131 108.61L170.13 76.9216L110.222 45.2332Z" fill="#8AA0C9"/>
<path d="M110.617 108.61H109.645V166.731H110.617V108.61Z" fill="#8AA0C9"/>
<path d="M76.5151 74.0449C76.4347 74.0449 76.3562 74.0198 76.2908 73.973C76.2066 73.9133 76.1496 73.8228 76.1322 73.7211C76.1149 73.6195 76.1386 73.5151 76.1982 73.4309C76.2702 73.3295 83.2973 63.1704 75.4525 53.9087C74.064 52.2609 72.332 50.9367 70.3778 50.0289C68.4236 49.1211 66.2945 48.6516 64.1398 48.6534H64.034C64.779 51.2414 64.646 53.5424 63.5911 55.3077C63.1417 56.1053 62.4784 56.7617 61.676 57.2027C60.8736 57.6437 59.964 57.8519 59.0497 57.8039C58.2929 57.7419 57.5705 57.4605 56.9711 56.9942C56.3717 56.5279 55.9214 55.897 55.6752 55.1786C54.8124 52.9281 55.714 50.746 58.0905 49.3397C59.596 48.5095 61.2688 48.0283 62.9854 47.9318C62.427 46.4513 61.7008 45.0396 60.8212 43.7243C57.9886 39.3983 52.8263 36.4036 46.6573 35.5082C41.4292 34.7496 36.4189 35.6431 33.8911 37.784C33.8124 37.8506 33.7104 37.8832 33.6077 37.8746C33.5049 37.866 33.4097 37.817 33.3431 37.7383C33.2765 37.6595 33.2439 37.5576 33.2524 37.4548C33.261 37.352 33.3101 37.2568 33.3888 37.1902C36.0786 34.9121 41.3304 33.949 46.7689 34.7407C53.1583 35.6684 58.517 38.7879 61.4721 43.3001C62.4301 44.7312 63.2094 46.2741 63.7925 47.8944C66.117 47.8386 68.4244 48.305 70.5447 49.2592C72.665 50.2133 74.5442 51.6311 76.0439 53.4079C84.2841 63.1358 76.9059 73.7762 76.8304 73.8827C76.7945 73.9328 76.7472 73.9737 76.6923 74.0019C76.6375 74.03 76.5768 74.0448 76.5151 74.0449ZM63.2377 48.6818C61.5735 48.7528 59.9481 49.207 58.4883 50.0092C56.4369 51.2231 55.6771 53.0062 56.403 54.9006C56.5997 55.481 56.9613 55.9915 57.4436 56.3697C57.9259 56.7478 58.5079 56.9772 59.1185 57.0297C59.8873 57.0642 60.6506 56.8841 61.3229 56.5096C61.9952 56.1351 62.5501 55.5809 62.9255 54.9091C63.8936 53.2877 63.9823 51.1325 63.2365 48.6818H63.2377Z" fill="#445E8E"/>
<path d="M27.1804 44.0529C26.5197 44.2514 25.8076 44.1841 25.1957 43.8654C24.5838 43.5467 24.1205 43.0017 23.9044 42.3465C23.6884 41.6913 23.7366 40.9776 24.0389 40.3574C24.3411 39.7373 24.8735 39.2596 25.5227 39.0261C26.1719 38.7926 26.8866 38.8218 27.5147 39.1074C28.1427 39.393 28.6344 39.9124 28.8852 40.5552C29.1359 41.1979 29.1258 41.9131 28.8571 42.5486C28.5884 43.184 28.0822 43.6894 27.4464 43.9572C27.3596 43.9939 27.2708 44.0259 27.1804 44.0529ZM25.8876 39.7323C25.8246 39.7512 25.7627 39.7736 25.7021 39.7992C25.2548 39.9878 24.8987 40.3437 24.7098 40.7909C24.5209 41.2382 24.5141 41.7415 24.6908 42.1937C24.8676 42.6459 25.2138 43.0113 25.656 43.212C26.0981 43.4126 26.601 43.4328 27.0578 43.2681C27.5145 43.1034 27.8889 42.7669 28.1012 42.3302C28.3135 41.8936 28.3469 41.3913 28.1944 40.9304C28.0418 40.4695 27.7154 40.0863 27.2845 39.8625C26.8536 39.6387 26.3524 39.592 25.8876 39.7323Z" fill="#445E8E"/>
<path d="M27.1757 37.96C26.5507 38.1466 25.8787 38.0956 25.289 37.8168C24.6993 37.5379 24.2335 37.0509 23.9812 36.4494C23.7789 35.9672 23.7241 35.4358 23.8238 34.9224C23.9234 34.4091 24.1731 33.9368 24.5412 33.5654C24.9093 33.1939 25.3793 32.9399 25.8918 32.8356C26.4042 32.7313 26.9361 32.7813 27.4201 32.9792C27.9042 33.1772 28.3186 33.5143 28.6111 33.9478C28.9035 34.3813 29.0609 34.8918 29.0632 35.4148C29.0655 35.9377 28.9127 36.4496 28.624 36.8857C28.3354 37.3218 27.924 37.6625 27.4417 37.8647C27.3548 37.9011 27.266 37.9329 27.1757 37.96ZM25.8845 33.639C25.8207 33.6582 25.758 33.6806 25.6967 33.7063C25.2405 33.8979 24.8791 34.2628 24.6919 34.7207C24.5047 35.1786 24.5069 35.6922 24.6982 36.1485C24.8377 36.4811 25.0705 36.7662 25.3686 36.9692C25.6667 37.1722 26.0172 37.2846 26.3778 37.2926C26.7384 37.3006 27.0936 37.204 27.4004 37.0144C27.7072 36.8248 27.9525 36.5503 28.1066 36.2242C28.2608 35.8982 28.3171 35.5344 28.2688 35.177C28.2206 34.8196 28.0698 34.4838 27.8347 34.2102C27.5996 33.9367 27.2903 33.7371 26.9442 33.6357C26.5981 33.5343 26.23 33.5357 25.8845 33.639Z" fill="#445E8E"/>
<path d="M26.4211 40.7097C28.3306 40.7097 29.8785 39.6758 29.8785 38.4005C29.8785 37.1252 28.3306 36.0913 26.4211 36.0913C24.5117 36.0913 22.9637 37.1252 22.9637 38.4005C22.9637 39.6758 24.5117 40.7097 26.4211 40.7097Z" fill="white"/>
<path d="M27.9515 40.8797C27.4558 41.0262 26.9415 41.1001 26.4246 41.099C24.2675 41.099 22.5753 39.917 22.5753 38.4041C22.5753 36.8912 24.2624 35.7049 26.4188 35.7025C27.3589 35.6845 28.2839 35.9413 29.0803 36.4413C29.4379 36.6276 29.7377 36.9084 29.947 37.2531C30.1563 37.5978 30.2672 37.9933 30.2675 38.3966C30.2679 38.7999 30.1578 39.1956 29.9491 39.5406C29.7404 39.8857 29.4411 40.167 29.0838 40.354C28.7345 40.5843 28.3529 40.7615 27.9515 40.8797ZM25.1279 36.6653C24.089 36.9763 23.3526 37.6478 23.353 38.4021C23.353 39.443 24.7593 40.3213 26.4246 40.3198C27.2113 40.3363 27.9857 40.1234 28.6533 39.707C28.9037 39.5917 29.1158 39.407 29.2643 39.1747C29.4129 38.9425 29.4917 38.6726 29.4915 38.3969C29.4912 38.1212 29.4119 37.8514 29.263 37.6195C29.114 37.3875 28.9016 37.2032 28.651 37.0883C27.9829 36.6728 27.2081 36.4612 26.4215 36.4794C25.9836 36.4783 25.5478 36.5409 25.1279 36.6653Z" fill="#445E8E"/>
<path d="M27.2692 40.6395L27.1875 36.1486L26.0708 36.1035L25.9927 40.692L27.2692 40.6395Z" fill="#445E8E"/>
<path d="M21.8341 39.3777C22.0312 39.3777 22.191 39.2179 22.191 39.0208C22.191 38.8236 22.0312 38.6638 21.8341 38.6638C21.637 38.6638 21.4772 38.8236 21.4772 39.0208C21.4772 39.2179 21.637 39.3777 21.8341 39.3777Z" fill="#445E8E"/>
<path d="M22.1129 37.4678C22.31 37.4678 22.4699 37.308 22.4699 37.1108C22.4699 36.9137 22.31 36.7539 22.1129 36.7539C21.9158 36.7539 21.756 36.9137 21.756 37.1108C21.756 37.308 21.9158 37.4678 22.1129 37.4678Z" fill="#445E8E"/>
<path d="M137.608 51.6216C137.525 51.6216 137.444 51.5949 137.377 51.5454C137.31 51.4959 137.261 51.4263 137.237 51.3467C135.947 46.5307 135.603 41.5104 136.223 36.5634C137.228 29.3314 141.217 19.8399 154.51 15.6838C156.38 15.0825 158.298 14.6427 160.244 14.3692C160.87 10.4573 163.253 6.21372 168.582 3.28591C181.242 -3.67086 189.795 2.57087 189.879 2.63463C189.962 2.69651 190.016 2.78862 190.031 2.8907C190.046 2.99279 190.019 3.09648 189.957 3.17898C189.895 3.26148 189.803 3.31602 189.701 3.3306C189.599 3.34518 189.495 3.31862 189.413 3.25674C189.332 3.19609 181.159 -2.73769 168.957 3.9679C163.977 6.70402 161.698 10.6311 161.05 14.2767C166.913 13.6993 169.721 15.655 170.981 17.1322C171.76 18.0204 172.261 19.1185 172.421 20.2895C172.581 21.4605 172.393 22.6527 171.88 23.7176C171.475 24.5783 170.818 25.2958 169.997 25.7754C169.175 26.2551 168.228 26.4742 167.279 26.404C164.005 26.2119 161.295 23.4575 160.376 19.3865C160.073 18.0085 159.993 16.5908 160.138 15.1873C158.308 15.4502 156.503 15.8652 154.742 16.428C144.382 19.6673 138.412 26.479 136.993 36.6727C136.386 41.5074 136.721 46.414 137.98 51.1212C137.998 51.1794 138.002 51.2409 137.992 51.3008C137.981 51.3607 137.957 51.4174 137.921 51.4663C137.885 51.5152 137.838 51.5549 137.783 51.5823C137.729 51.6097 137.669 51.624 137.608 51.624V51.6216ZM160.931 15.0901C160.769 16.4669 160.838 17.8611 161.135 19.2151C161.975 22.9392 164.405 25.456 167.324 25.6275C168.12 25.6845 168.914 25.4997 169.603 25.0972C170.292 24.6948 170.843 24.0935 171.184 23.3723C171.629 22.4438 171.791 21.4049 171.649 20.3852C171.507 19.3655 171.069 18.41 170.388 17.6376C168.57 15.5042 165.252 14.6426 160.931 15.0901Z" fill="#445E8E"/>
<path d="M198.937 6.56439C198.413 6.56329 197.9 6.41413 197.458 6.13412C197.015 5.85412 196.661 5.45467 196.435 4.9819C196.21 4.50912 196.123 3.98229 196.185 3.4622C196.246 2.9421 196.453 2.44996 196.782 2.04256C197.111 1.63516 197.549 1.32911 198.044 1.15974C198.54 0.990369 199.073 0.964577 199.583 1.08534C200.092 1.20611 200.557 1.4685 200.924 1.84225C201.291 2.216 201.545 2.68586 201.656 3.1976C201.743 3.60327 201.738 4.02329 201.642 4.42691C201.546 4.83053 201.361 5.20753 201.1 5.53031C200.839 5.85309 200.51 6.11347 200.135 6.2924C199.761 6.47132 199.351 6.56425 198.937 6.56439ZM198.942 1.78813C198.529 1.78812 198.125 1.91638 197.788 2.15523C197.45 2.39409 197.195 2.73177 197.057 3.12175C196.92 3.51172 196.906 3.93479 197.019 4.33265C197.132 4.7305 197.366 5.08355 197.688 5.34313C198.01 5.60272 198.404 5.75606 198.817 5.78203C199.23 5.808 199.64 5.70531 199.992 5.48812C200.344 5.27093 200.62 4.94993 200.782 4.56936C200.944 4.18879 200.983 3.76739 200.896 3.36324C200.801 2.91609 200.555 2.51528 200.199 2.22837C199.843 1.94145 199.399 1.78597 198.942 1.78813Z" fill="#445E8E"/>
<path d="M197.766 12.9103C197.053 12.9102 196.368 12.637 195.85 12.1467C195.333 11.6565 195.023 10.9867 194.985 10.2751C194.947 9.56345 195.183 8.86425 195.645 8.3214C196.106 7.77855 196.759 7.43336 197.467 7.3569C198.176 7.28044 198.887 7.47853 199.453 7.91038C200.02 8.34223 200.4 8.97498 200.515 9.67837C200.629 10.3818 200.469 11.1023 200.069 11.6915C199.668 12.2808 199.056 12.694 198.36 12.8461C198.165 12.8888 197.966 12.9103 197.766 12.9103ZM197.775 8.13363C197.632 8.13369 197.488 8.14921 197.348 8.1799C196.851 8.28898 196.415 8.58428 196.13 9.00502C195.844 9.42577 195.73 9.93997 195.812 10.4418C195.894 10.9437 196.166 11.395 196.57 11.703C196.975 12.0109 197.482 12.1521 197.988 12.0974C198.493 12.0427 198.959 11.7963 199.288 11.4089C199.618 11.0216 199.786 10.5227 199.759 10.0149C199.732 9.50711 199.511 9.02907 199.142 8.67913C198.773 8.32919 198.284 8.13397 197.775 8.13363Z" fill="#445E8E"/>
<path d="M201.942 7.70015C202.187 6.37208 200.773 4.99801 198.785 4.63109C196.797 4.26418 194.986 5.04336 194.741 6.37143C194.496 7.69951 195.909 9.07357 197.897 9.44048C199.886 9.8074 201.696 9.02823 201.942 7.70015Z" fill="white"/>
<path d="M198.876 9.92077C198.524 9.9202 198.173 9.88767 197.827 9.82357C196.849 9.66133 195.94 9.2173 195.21 8.54591C194.891 8.27358 194.646 7.92519 194.497 7.53292C194.348 7.14065 194.3 6.71717 194.358 6.30164C194.453 5.89276 194.648 5.5142 194.927 5.20092C195.206 4.88763 195.56 4.64973 195.955 4.50918C196.88 4.15986 197.883 4.07004 198.855 4.24946C199.827 4.42887 200.732 4.87068 201.471 5.52711C201.791 5.79943 202.036 6.14783 202.185 6.5401C202.334 6.93236 202.381 7.35584 202.323 7.77138C202.229 8.18025 202.034 8.55882 201.754 8.8721C201.475 9.18538 201.122 9.42329 200.726 9.56384C200.14 9.80646 199.511 9.92788 198.876 9.92077ZM197.803 4.92911C197.275 4.92239 196.751 5.02251 196.262 5.22344C195.986 5.31592 195.737 5.47586 195.538 5.68877C195.339 5.90167 195.197 6.16083 195.123 6.44278C195.091 6.73239 195.132 7.0254 195.242 7.29527C195.352 7.56514 195.527 7.80335 195.752 7.98834C196.381 8.53727 197.146 8.90688 197.967 9.05841C198.788 9.20994 199.635 9.1378 200.418 8.84957C200.694 8.75709 200.943 8.59716 201.142 8.38425C201.341 8.17134 201.484 7.91218 201.557 7.63023C201.59 7.3406 201.549 7.04753 201.439 6.77763C201.329 6.50772 201.154 6.26953 200.928 6.08468C200.309 5.52002 199.539 5.14804 198.712 5.01426C198.413 4.95849 198.109 4.92999 197.804 4.92911H197.803Z" fill="#445E8E"/>
<path d="M197.892 4.54175L197.11 9.23325L198.264 9.49609L199.231 4.73344L197.892 4.54175Z" fill="#445E8E"/>
<path d="M202.579 9.58887C202.788 9.58887 202.957 9.41967 202.957 9.21094C202.957 9.00221 202.788 8.83301 202.579 8.83301C202.371 8.83301 202.201 9.00221 202.201 9.21094C202.201 9.41967 202.371 9.58887 202.579 9.58887Z" fill="#445E8E"/>
<path d="M203.238 7.6543C203.447 7.6543 203.616 7.4851 203.616 7.27637C203.616 7.06764 203.447 6.89844 203.238 6.89844C203.029 6.89844 202.86 7.06764 202.86 7.27637C202.86 7.4851 203.029 7.6543 203.238 7.6543Z" fill="#445E8E"/>
</svg>
