<svg width="403" height="257" viewBox="0 0 403 257" fill="none" xmlns="http://www.w3.org/2000/svg">
<path d="M298.272 27.9892C260.138 59.4956 178.703 35.4706 142.752 19.5198C20.4547 -31.7204 12.7508 33.9181 12.7508 49.5865C12.7508 75.4737 44.4184 100.171 35.8621 125.388C23.6241 161.457 -21.8594 212.488 12.7508 227.868C89.762 262.091 180.789 260.476 298.272 251.16C415.754 241.843 396.013 199.073 379.643 180.016C368.518 167.066 314.642 158.843 384.458 94.051C442.088 40.5679 345.939 -11.3937 298.272 27.9892Z" fill="#FFEAEC"/>
<g clip-path="url(#clip0_5855_58797)">
<path fill-rule="evenodd" clip-rule="evenodd" d="M122.156 147C122.156 192.201 158.799 228.844 204 228.844C249.201 228.844 285.844 192.201 285.844 147C285.844 101.799 249.201 65.1562 204 65.1562C158.799 65.1562 122.156 101.799 122.156 147Z" fill="#E12E40"/>
<path fill-rule="evenodd" clip-rule="evenodd" d="M186.557 123.142C186.557 113.512 194.36 105.705 203.986 105.705C213.612 105.705 221.416 113.512 221.416 123.142V131.88H230.131V123.148C230.131 108.71 218.432 97.0053 204 97.0053H204C189.568 97.0053 177.869 108.71 177.869 123.148V131.88H186.557V123.142Z" fill="white"/>
<path fill-rule="evenodd" clip-rule="evenodd" d="M241.657 184.739H166.57C164.775 184.739 163.306 183.272 163.306 181.479V133.664C163.306 131.871 164.775 130.404 166.57 130.404H241.657C243.453 130.404 244.922 131.871 244.922 133.664V181.479C244.922 183.272 243.453 184.739 241.657 184.739Z" fill="white"/>
<path fill-rule="evenodd" clip-rule="evenodd" d="M204.227 145.409C205.968 145.409 207.379 146.781 207.379 148.475L207.379 158.555C209.168 159.628 210.366 161.586 210.366 163.823C210.366 167.214 207.617 169.962 204.227 169.962C200.837 169.962 198.089 167.214 198.089 163.823C198.089 161.586 199.286 159.628 201.075 158.555L201.075 148.475C201.075 146.801 202.454 145.441 204.166 145.409L204.227 145.409Z" fill="#E12E40"/>
</g>
<path d="M298.272 27.6976C260.138 59.204 178.703 35.179 142.752 19.2282C20.4547 -32.0121 12.7508 33.6264 12.7508 49.2949C12.7508 75.1821 44.4184 99.8789 35.8621 125.096C23.6241 161.165 -21.8594 212.197 12.7508 227.577C89.762 261.799 180.789 260.184 298.272 250.868C415.754 241.551 396.013 198.781 379.643 179.725C368.518 166.775 314.642 158.551 384.458 93.7594C442.088 40.2763 345.939 -11.6854 298.272 27.6976Z" fill="#FFEAEC"/>
<g clip-path="url(#clip1_5855_58797)">
<path fill-rule="evenodd" clip-rule="evenodd" d="M122.156 146.708C122.156 191.909 158.799 228.552 204 228.552C249.201 228.552 285.844 191.909 285.844 146.708C285.844 101.507 249.201 64.8646 204 64.8646C158.799 64.8646 122.156 101.507 122.156 146.708Z" fill="#E12E40"/>
<path fill-rule="evenodd" clip-rule="evenodd" d="M186.557 122.851C186.557 113.22 194.36 105.413 203.986 105.413C213.612 105.413 221.416 113.22 221.416 122.851V131.588H230.131V122.856C230.131 108.418 218.432 96.7137 204 96.7137H204C189.568 96.7137 177.869 108.418 177.869 122.856V131.588H186.557V122.851Z" fill="white"/>
<path fill-rule="evenodd" clip-rule="evenodd" d="M241.657 184.447H166.57C164.774 184.447 163.305 182.98 163.305 181.187V133.372C163.305 131.579 164.774 130.112 166.57 130.112H241.657C243.453 130.112 244.922 131.579 244.922 133.372V181.187C244.922 182.98 243.453 184.447 241.657 184.447Z" fill="white"/>
<path fill-rule="evenodd" clip-rule="evenodd" d="M204.227 145.117C205.968 145.117 207.379 146.49 207.379 148.183L207.379 158.264C209.168 159.336 210.366 161.294 210.366 163.532C210.366 166.922 207.617 169.67 204.227 169.67C200.837 169.67 198.089 166.922 198.089 163.532C198.089 161.294 199.286 159.336 201.075 158.264L201.075 148.183C201.075 146.509 202.454 145.149 204.166 145.118L204.227 145.117Z" fill="#E12E40"/>
</g>
<defs>
<clipPath id="clip0_5855_58797">
<rect width="194" height="194" fill="white" transform="translate(107 50)"/>
</clipPath>
<clipPath id="clip1_5855_58797">
<rect width="194" height="194" fill="white" transform="translate(107 49.7084)"/>
</clipPath>
</defs>
</svg>
