<svg width="42" height="42" viewBox="0 0 42 42" fill="none" xmlns="http://www.w3.org/2000/svg">
<g clip-path="url(#clip0_5831_51225)">
<rect x="18" y="5" width="7" height="6" fill="#5A629E"/>
<rect x="10" y="11" width="24" height="24" fill="#7289E4"/>
<path d="M33.25 5.25H25.935C25.2 3.22 23.275 1.75 21 1.75C18.725 1.75 16.8 3.22 16.065 5.25H8.75C6.825 5.25 5.25 6.825 5.25 8.75V33.25C5.25 35.175 6.825 36.75 8.75 36.75H33.25C35.175 36.75 36.75 35.175 36.75 33.25V8.75C36.75 6.825 35.175 5.25 33.25 5.25ZM21 5.25C21.9625 5.25 22.75 6.0375 22.75 7C22.75 7.9625 21.9625 8.75 21 8.75C20.0375 8.75 19.25 7.9625 19.25 7C19.25 6.0375 20.0375 5.25 21 5.25ZM21 12.25C23.905 12.25 26.25 14.595 26.25 17.5C26.25 20.405 23.905 22.75 21 22.75C18.095 22.75 15.75 20.405 15.75 17.5C15.75 14.595 18.095 12.25 21 12.25ZM31.5 33.25H10.5V30.8C10.5 27.3 17.5 25.375 21 25.375C24.5 25.375 31.5 27.3 31.5 30.8V33.25Z" fill="#202A79"/>
</g>
<defs>
<clipPath id="clip0_5831_51225">
<rect width="42" height="42" fill="white"/>
</clipPath>
</defs>
</svg>
